# xmcd CD database file
#
# Track frame offsets:
#	150
#	29895
#	41812
#	55450
#	85863
#	103758
#	116835
#	130570
#	151403
#	167765
#	177805
#	198493
#	224813
#	250513
#	270373
#	276543
#
# Disc length: 3869 seconds
#
# Revision: 0
# Processed by: cddbd v1.5PL3 Copyright (c) Steve Scherf et al.
# Submitted via: CDex 1.50
#
DISCID=f10f1b10
DTITLE=Loren Schoenberg - Out of this World Sounds
DYEAR=1997
DGENRE=Jazz
TTITLE0=That Old Feeling
TTITLE1=Close As Pages In a Book
TTITLE2=The Blue Room
TTITLE3=Out of This World
TTITLE4=VFW
TTITLE5=Iguana
TTITLE6=The Fable Of The Rose
TTITLE7=Pulsacion
TTITLE8=Moon Over Cuba
TTITLE9=Jig Walk
TTITLE10=Love Walked In
TTITLE11=BitterSweet
TTITLE12=Lover Man
TTITLE13=Around Town
TTITLE14=Sure Thing
TTITLE15=Shufflebug Shuffle
EXTD=YEAR: 1997
EXTT0=
EXTT1=
EXTT2=
EXTT3=
EXTT4=
EXTT5=
EXTT6=
EXTT7=
EXTT8=
EXTT9=
EXTT10=
EXTT11=
EXTT12=
EXTT13=
EXTT14=
EXTT15=
PLAYORDER=
